<?xml version="1.0" encoding="UTF-8"?>
<svg id="Layer_1" data-name="Layer 1" xmlns="http://www.w3.org/2000/svg" viewBox="0 0 400 300">
  <defs>
    <style>
      .cls-1, .cls-2, .cls-3 {
        fill: #fff;
      }

      .cls-4 {
        fill: #46554a;
      }

      .cls-2 {
        font-size: 62px;
      }

      .cls-2, .cls-3 {
        font-family: Pretendard-Bold-KSCpc-EUC-H, Pretendard;
        font-weight: 700;
      }

      .cls-3 {
        font-size: 30px;
      }

      .cls-5 {
        fill: none;
        stroke: #fff;
        stroke-linejoin: round;
        stroke-width: 12px;
      }
    </style>
  </defs>
  <rect class="cls-4" y="-.75" width="400" height="301.5"/>
  <text class="cls-3" transform="translate(160.11 261.24)"><tspan x="0" y="0">HDPE</tspan></text>
  <g>
    <g>
      <path class="cls-5" d="M222.5,186.3h25.62c6.78,0,13.04-3.62,16.43-9.49,3.39-5.87,3.39-13.1,0-18.97-7.43-12.86-14.85-25.73-22.28-38.59"/>
      <polygon class="cls-1" points="226.35 199.47 203.56 186.31 226.35 173.14 226.35 199.47"/>
    </g>
    <g>
      <path class="cls-5" d="M229.24,96.68c-4.27-7.4-8.54-14.79-12.81-22.19-3.39-5.87-9.65-9.49-16.43-9.49s-13.04,3.62-16.43,9.49c-7.43,12.86-14.85,25.73-22.28,38.59"/>
      <polygon class="cls-1" points="238.71 86.76 238.71 113.09 215.92 99.93 238.71 86.76"/>
    </g>
    <g>
      <path class="cls-5" d="M148.26,135.66c-4.27,7.4-8.54,14.79-12.81,22.19-3.39,5.87-3.39,13.1,0,18.97,3.39,5.87,9.65,9.49,16.43,9.49h44.56"/>
      <polygon class="cls-1" points="134.93 132.41 157.73 119.25 157.73 145.57 134.93 132.41"/>
    </g>
  </g>
  <text class="cls-2" transform="translate(179.66 160.48)"><tspan x="0" y="0">2</tspan></text>
</svg>