<svg width="148" height="148" viewBox="0 0 148 148" fill="none" xmlns="http://www.w3.org/2000/svg">
<path d="M79.4481 70.2392V69.9941H61.8907V63.9075H87.1688V70.0922L72.0788 99.7248H64.3581L79.4481 70.2392Z" fill="#0A0A0A" fill-opacity="0.5"/>
<path d="M130.959 95.1043L122.076 79.9796C118.925 74.6201 115.783 69.2606 112.633 63.9092L104.087 68.7594C107.237 74.1108 110.379 79.4703 113.529 84.8299L122.413 99.9545C124.313 103.188 124.313 107.206 122.413 110.439C120.513 113.673 116.968 115.685 113.176 115.685H95.2688V109.897L76.5228 120.544L95.2688 131.182V125.386H113.176C120.488 125.386 127.307 121.514 130.959 115.289C134.62 109.065 134.62 101.329 130.959 95.1043Z" fill="#0A0A0A" fill-opacity="0.5"/>
<path d="M83.2997 31.7999L92.2777 47.0816L87.1663 49.9823L105.955 60.6454V39.3111L100.843 42.2119L91.8737 26.9383C88.2051 20.6993 81.3706 16.8181 74.0415 16.8181C66.7124 16.8181 59.8779 20.6993 56.2093 26.9383L47.1654 42.3334C44.0573 47.6244 40.9493 52.9155 37.8412 58.2065L46.4069 63.0681C49.515 57.7771 52.623 52.486 55.7311 47.195L64.775 31.7999C66.6794 28.5589 70.2327 26.5413 74.0333 26.5413C77.8338 26.5413 81.3871 28.5589 83.2915 31.7999H83.2997Z" fill="#0A0A0A" fill-opacity="0.5"/>
<path d="M25.5773 111.033C23.6774 107.763 23.6774 103.701 25.5773 100.432L34.5336 85.0175L39.6327 87.9435V66.4319L20.8812 77.1877L25.9885 80.1137L17.0404 95.52C13.3806 101.813 13.3806 109.635 17.0404 115.928C20.7002 122.222 27.51 126.136 34.8297 126.136H71.4774V116.329H34.8297C31.03 116.329 27.4935 114.294 25.5937 111.024L25.5773 111.033Z" fill="#0A0A0A" fill-opacity="0.5"/>
</svg>
