<svg width="148" height="148" viewBox="0 0 148 148" fill="none" xmlns="http://www.w3.org/2000/svg">
<path d="M130.959 95.1043L122.076 79.9796C118.925 74.6201 115.783 69.2606 112.633 63.9092L104.086 68.7594C107.237 74.1108 110.379 79.4703 113.529 84.8299L122.413 99.9545C124.313 103.188 124.313 107.206 122.413 110.439C120.513 113.673 116.968 115.685 113.176 115.685H95.2687V109.897L76.5227 120.544L95.2687 131.182V125.386H113.176C120.488 125.386 127.307 121.514 130.959 115.289C134.62 109.065 134.62 101.329 130.959 95.1043Z" fill="#0A0A0A" fill-opacity="0.5"/>
<path d="M83.2996 31.7999L92.2776 47.0816L87.1662 49.9823L105.955 60.6454V39.3111L100.843 42.2119L91.8736 26.9383C88.2049 20.6993 81.3705 16.8181 74.0414 16.8181C66.7123 16.8181 59.8778 20.6993 56.2092 26.9383L47.1653 42.3334C44.0572 47.6244 40.9491 52.9155 37.8411 58.2065L46.4068 63.0681C49.5149 57.7771 52.6229 52.486 55.731 47.195L64.7749 31.7999C66.6793 28.5589 70.2326 26.5413 74.0331 26.5413C77.8337 26.5413 81.387 28.5589 83.2914 31.7999H83.2996Z" fill="#0A0A0A" fill-opacity="0.5"/>
<path d="M25.5771 111.033C23.6773 107.763 23.6773 103.701 25.5771 100.432L34.5335 85.0175L39.6326 87.9435V66.4319L20.8811 77.1877L25.9884 80.1137L17.0403 95.52C13.3805 101.813 13.3805 109.635 17.0403 115.928C20.7001 122.222 27.5099 126.136 34.8295 126.136H71.4772V116.329H34.8295C31.0299 116.329 27.4934 114.294 25.5936 111.024L25.5771 111.033Z" fill="#0A0A0A" fill-opacity="0.5"/>
<path d="M73.5225 99.5636C66.0466 99.5636 60.6865 95.426 60.5454 89.5016H67.6922C67.8333 92.0406 70.2783 93.7333 73.5696 93.7333C76.9549 93.7333 79.3999 91.8055 79.3528 89.0785C79.3999 86.3044 76.9079 84.3296 72.9113 84.3296H69.7611V79.1105H72.9113C76.2496 79.1105 78.6005 77.2768 78.6005 74.5967C78.6005 72.0107 76.6258 70.224 73.6166 70.224C70.6074 70.224 68.1154 71.9167 68.0214 74.5027H61.2507C61.3447 68.6254 66.6578 64.5818 73.6166 64.5818C80.7164 64.5818 85.4653 68.7664 85.4182 74.1736C85.4653 77.9821 82.7852 80.7092 78.9767 81.3674V81.6495C83.9607 82.2608 86.7348 85.317 86.6877 89.5487C86.7348 95.379 81.1866 99.5636 73.5225 99.5636Z" fill="#0A0A0A" fill-opacity="0.5"/>
</svg>
