<svg width="30" height="30" viewBox="0 0 30 30" fill="none" xmlns="http://www.w3.org/2000/svg">
<g clip-path="url(#clip0_4479_6870)">
<path fill-rule="evenodd" clip-rule="evenodd" d="M20.7646 9.23536C21.0785 9.54917 21.0785 10.058 20.7646 10.3718L11.1218 20.0146C10.808 20.3285 10.2992 20.3285 9.98536 20.0146C9.67155 19.7008 9.67155 19.192 9.98536 18.8782L19.6282 9.23536C19.942 8.92155 20.4508 8.92155 20.7646 9.23536Z" fill="#232324"/>
<path fill-rule="evenodd" clip-rule="evenodd" d="M9.98536 9.23536C10.2992 8.92155 10.808 8.92155 11.1218 9.23536L20.7646 18.8782C21.0785 19.192 21.0785 19.7008 20.7646 20.0146C20.4508 20.3285 19.942 20.3285 19.6282 20.0146L9.98536 10.3718C9.67155 10.058 9.67155 9.54917 9.98536 9.23536Z" fill="#232324"/>
<circle cx="15" cy="15" r="14.625" stroke="#232324" stroke-width="0.75"/>
</g>
<defs>
<clipPath id="clip0_4479_6870">
<rect width="30" height="30" fill="white"/>
</clipPath>
</defs>
</svg>
